<svg xmlns="http://www.w3.org/2000/svg" viewBox="0 0 167.123 34" height="128.504" width="631.646" xmlns:v="https://vecta.io/nano"><path d="M-.001 0h30v34h-30z" fill="#cf0"/><path d="M30 0h137.123v34H30z" fill="#0f6"/><path d="M0 2h30v30H0z"/><path d="M13.562 21.3v-2.874h2.874V21.3zm-5.75 5.75V6.94h2.874v8.623h2.874v2.874h-2.874v8.623zM19.31 21.3v-2.874h-2.874v-2.874h2.874V6.94h2.874V21.3zM30 2h137.123v30H30z" fill="#fff"/><path d="M35.073 26.456v-2.702h2.702V15.65h2.702v2.702h8.105V15.65H45.88v-2.702h-2.702v-2.702h-5.403V7.544h8.105v2.702h2.702v2.702h2.702v2.702h2.702v10.807H45.88v-2.702h2.702v-2.702h-8.105v2.702h2.702v2.702zm0-13.508v-2.702h2.702v2.702zm5.403 2.702v-2.702h2.702v2.702zm16.2 0v-2.702h5.403v2.702h2.702v8.105h2.702v2.702H62.1v-2.702h-2.702V15.65zm8.105 0v-2.702h8.105v2.702h2.702v2.702h-5.403V15.65zm13.51 5.402V18.35H81v-2.7h2.702v5.403h2.702v2.702h5.403v2.702h-8.105v-2.702H81v-2.702zm5.403-5.403v-2.702h8.105v2.702H94.5v2.702h-5.403v-2.7zm8.105 8.105v-2.702H94.5v2.702zm8.104 0v-2.702h2.702V18.35h8.105v-2.7h-8.105v-2.702h10.807v2.702h2.702v8.105h2.702v2.702h-5.403v-2.702h-2.702v-2.702h-5.403v2.702h5.403v2.702h-8.105v-2.702zm21.613-2.702V18.35h2.702v-2.7h2.702v5.403h2.702v2.702h5.403v2.702h-8.105v-2.702h-2.702v-2.702zm5.403-5.403v-5.403h-2.702V7.544h5.403v2.702h2.702v2.702h2.702v2.702h2.702v2.702h2.702v2.702h-2.702v2.702h-2.702V18.35h-2.702v-2.7zm16.2 5.403V18.35h2.702v-2.7h2.702v5.403h2.702V18.35h2.702v-2.7h-5.403v-2.702h8.105v2.702h2.702v2.702h-2.702v2.702h-2.702v2.702h5.403v2.702h-10.81v-2.702h-2.702v-2.702zm16.2 2.702v-2.702h2.702v2.702zm2.277-15.628v-2.08h.787v-.693h.787V8.82h-.787v-.693zm1.574.693h2.36v.693h-2.36zm0-3.466V4.66h2.36v.693zm2.36 3.466v-.693h.787v.693zm0-2.773v-.693h.787v.693zm.787 2.08v-2.08h.787v2.08zm-2.84-.603h.3v-.3h.3v-.3h-.3v-.3h-.3V6.07h1.747v.582h-.582v-.3h-.582v.3h.3v.3h.3v.3h-.3v.3h-.3v.3h.582v-.3h.582v.582h-1.747z" fill="#6200e1"/></svg>